HIERARCHY
ROOT Hips
{
	OFFSET 0.0000 0.0783 0.0000
	CHANNELS 6 Xposition Yposition Zposition Yrotation Xrotation Zrotation
	JOINT Spine
	{
		OFFSET 0.0000 0.0783 0.0000
		CHANNELS 3 Yrotation Xrotation Zrotation
		JOINT Spine1
		{
			OFFSET 0.0000 0.2568 0.0000
			CHANNELS 3 Yrotation Xrotation Zrotation
			JOINT Neck
			{
				OFFSET 0.0000 0.2758 0.0000
				CHANNELS 3 Yrotation Xrotation Zrotation
				JOINT Head
				{
					OFFSET 0.0000 0.1480 0.0191
					CHANNELS 3 Yrotation Xrotation Zrotation
				}
			}
			JOINT LeftShoulder
			{
				OFFSET 0.0383 0.2467 -0.0017
				CHANNELS 3 Yrotation Xrotation Zrotation
				JOINT LeftArm
				{
					OFFSET 0.0878 0.0000 0.0000
					CHANNELS 3 Yrotation Xrotation Zrotation
					JOINT LeftForeArm
					{
						OFFSET 0.3220 0.0000 0.0000
						CHANNELS 3 Yrotation Xrotation Zrotation
						JOINT LeftHand
						{
							OFFSET 0.2350 0.0000 0.0000
							CHANNELS 3 Yrotation Xrotation Zrotation
							JOINT LeftHandIndex1
							{
								OFFSET 0.0843 0.0000 0.0328
								CHANNELS 3 Yrotation Xrotation Zrotation
								JOINT LeftHandIndex2
								{
									OFFSET 0.0372 0.0000 0.0000
									CHANNELS 3 Yrotation Xrotation Zrotation
									JOINT LeftHandIndex3
									{
										OFFSET 0.0265 0.0000 0.0000
										CHANNELS 3 Yrotation Xrotation Zrotation
									}
								}
							}
							JOINT LeftHandMiddle1
							{
								OFFSET 0.0843 0.0000 0.0109
								CHANNELS 3 Yrotation Xrotation Zrotation
								JOINT LeftHandMiddle2
								{
									OFFSET 0.0414 0.0000 0.0000
									CHANNELS 3 Yrotation Xrotation Zrotation
									JOINT LeftHandMiddle3
									{
										OFFSET 0.0252 0.0000 0.0000
										CHANNELS 3 Yrotation Xrotation Zrotation
									}
								}
							}
							JOINT LeftHandPinky1
							{
								OFFSET 0.0713 0.0000 -0.0328
								CHANNELS 3 Yrotation Xrotation Zrotation
								JOINT LeftHandPinky2
								{
									OFFSET 0.0309 0.0000 0.0000
									CHANNELS 3 Yrotation Xrotation Zrotation
									JOINT LeftHandPinky3
									{
										OFFSET 0.0239 0.0000 0.0000
										CHANNELS 3 Yrotation Xrotation Zrotation
									}
								}
							}
							JOINT LeftHandRing1
							{
								OFFSET 0.0799 0.0000 -0.0109
								CHANNELS 3 Yrotation Xrotation Zrotation
								JOINT LeftHandRing2
								{
									OFFSET 0.0374 0.0000 0.0000
									CHANNELS 3 Yrotation Xrotation Zrotation
									JOINT LeftHandRing3
									{
										OFFSET 0.0255 0.0000 0.0000
										CHANNELS 3 Yrotation Xrotation Zrotation
									}
								}
							}
							JOINT LeftHandThumb1
							{
								OFFSET 0.0206 -0.0001 0.0517
								CHANNELS 3 Yrotation Xrotation Zrotation
								JOINT LeftHandThumb2
								{
									OFFSET 0.0328 0.0000 0.0000
									CHANNELS 3 Yrotation Xrotation Zrotation
									JOINT LeftHandThumb3
									{
										OFFSET 0.0260 0.0000 0.0000
										CHANNELS 3 Yrotation Xrotation Zrotation
									}
								}
							}
						}
					}
				}
			}
			JOINT RightShoulder
			{
				OFFSET -0.0380 0.2467 -0.0017
				CHANNELS 3 Yrotation Xrotation Zrotation
				JOINT RightArm
				{
					OFFSET -0.0878 0.0000 0.0000
					CHANNELS 3 Yrotation Xrotation Zrotation
					JOINT RightForeArm
					{
						OFFSET -0.3220 0.0000 0.0000
						CHANNELS 3 Yrotation Xrotation Zrotation
						JOINT RightHand
						{
							OFFSET -0.2350 0.0000 0.0000
							CHANNELS 3 Yrotation Xrotation Zrotation
							JOINT RightHandIndex1
							{
								OFFSET -0.0850 0.0000 0.0328
								CHANNELS 3 Yrotation Xrotation Zrotation
								JOINT RightHandIndex2
								{
									OFFSET -0.0372 0.0000 0.0000
									CHANNELS 3 Yrotation Xrotation Zrotation
									JOINT RightHandIndex3
									{
										OFFSET -0.0265 0.0000 0.0000
										CHANNELS 3 Yrotation Xrotation Zrotation
									}
								}
							}
							JOINT RightHandMiddle1
							{
								OFFSET -0.0850 0.0000 0.0109
								CHANNELS 3 Yrotation Xrotation Zrotation
								JOINT RightHandMiddle2
								{
									OFFSET -0.0414 0.0000 0.0000
									CHANNELS 3 Yrotation Xrotation Zrotation
									JOINT RightHandMiddle3
									{
										OFFSET -0.0252 0.0000 0.0000
										CHANNELS 3 Yrotation Xrotation Zrotation
									}
								}
							}
							JOINT RightHandPinky1
							{
								OFFSET -0.0720 0.0000 -0.0328
								CHANNELS 3 Yrotation Xrotation Zrotation
								JOINT RightHandPinky2
								{
									OFFSET -0.0309 0.0000 0.0000
									CHANNELS 3 Yrotation Xrotation Zrotation
									JOINT RightHandPinky3
									{
										OFFSET -0.0239 0.0000 0.0000
										CHANNELS 3 Yrotation Xrotation Zrotation
									}
								}
							}
							JOINT RightHandRing1
							{
								OFFSET -0.0807 0.0000 -0.0109
								CHANNELS 3 Yrotation Xrotation Zrotation
								JOINT RightHandRing2
								{
									OFFSET -0.0374 0.0000 0.0000
									CHANNELS 3 Yrotation Xrotation Zrotation
									JOINT RightHandRing3
									{
										OFFSET -0.0255 0.0000 0.0000
										CHANNELS 3 Yrotation Xrotation Zrotation
									}
								}
							}
							JOINT RightHandThumb1
							{
								OFFSET -0.0214 -0.0001 0.0517
								CHANNELS 3 Yrotation Xrotation Zrotation
								JOINT RightHandThumb2
								{
									OFFSET -0.0328 0.0000 0.0000
									CHANNELS 3 Yrotation Xrotation Zrotation
									JOINT RightHandThumb3
									{
										OFFSET -0.0260 0.0000 0.0000
										CHANNELS 3 Yrotation Xrotation Zrotation
									}
								}
							}
						}
					}
				}
			}
		}
	}
	JOINT LeftUpLeg
	{
		OFFSET 0.0955 0.0000 0.0000
		CHANNELS 3 Yrotation Xrotation Zrotation
		JOINT LeftLeg
		{
			OFFSET 0.0000 -0.3842 0.0000
			CHANNELS 3 Yrotation Xrotation Zrotation
			JOINT LeftFoot
			{
				OFFSET 0.0000 -0.3567 0.0000
				CHANNELS 3 Yrotation Xrotation Zrotation
				JOINT LeftToeBase
				{
					OFFSET 0.0000 -0.0621 0.1432
					CHANNELS 3 Yrotation Xrotation Zrotation
				}
			}
		}
	}
	JOINT RightUpLeg
	{
		OFFSET -0.0955 0.0000 0.0000
		CHANNELS 3 Yrotation Xrotation Zrotation
		JOINT RightLeg
		{
			OFFSET 0.0000 -0.3842 0.0000
			CHANNELS 3 Yrotation Xrotation Zrotation
			JOINT RightFoot
			{
				OFFSET 0.0000 -0.3567 0.0000
				CHANNELS 3 Yrotation Xrotation Zrotation
				JOINT RightToeBase
				{
					OFFSET 0.0000 -0.0621 0.1432
					CHANNELS 3 Yrotation Xrotation Zrotation
				}
			}
		}
	}
}
MOTION
Frames: 9
Frame Time: 0.0166667
-0.1781 0.8962 0.2711 356.4469 356.4980 358.7005 359.1886 352.6336 359.1033 0.0348 7.8186 4.7563 358.6882 3.5323 359.6058 358.6268 1.6144 1.0612 352.3226 4.5311 3.4977 316.4442 2.6387 283.2114 340.4174 339.1269 0.3522 9.7065 357.2570 2.2425 0.0000 0.0000 0.0000 0.0000 0.0000 0.0000 0.0000 0.0000 0.0000 0.0000 0.0000 0.0000 0.0000 0.0000 0.0000 0.0000 0.0000 0.0000 0.0000 0.0000 0.0000 0.0000 0.0000 0.0000 0.0000 0.0000 0.0000 0.0000 0.0000 0.0000 0.0000 0.0000 0.0000 0.0000 0.0000 0.0000 0.0000 0.0000 0.0000 0.0000 0.0000 0.0000 0.0000 0.0000 0.0000 2.3452 7.1128 359.6072 45.3882 7.7412 64.2332 19.1462 347.4629 356.8039 349.7673 356.5591 5.8429 0.0000 0.0000 0.0000 0.0000 0.0000 0.0000 0.0000 0.0000 0.0000 0.0000 0.0000 0.0000 0.0000 0.0000 0.0000 0.0000 0.0000 0.0000 0.0000 0.0000 0.0000 0.0000 0.0000 0.0000 0.0000 0.0000 0.0000 0.0000 0.0000 0.0000 0.0000 0.0000 0.0000 0.0000 0.0000 0.0000 0.0000 0.0000 0.0000 0.0000 0.0000 0.0000 0.0000 0.0000 0.0000 6.5744 3.0962 12.7038 7.3243 17.9835 2.0824 358.4920 355.0277 353.4008 355.4333 0.3666 359.8814 354.8967 3.1466 356.3238 2.4960 16.6827 5.6695 350.4095 351.8999 0.4594 2.7479 0.1724 359.5013 
-0.1778 0.8962 0.2712 356.4347 356.5070 358.7100 359.1896 352.6212 359.1103 0.0354 7.8265 4.7669 358.6801 3.5385 359.6032 358.6112 1.6354 1.0642 352.3317 4.5260 3.5065 316.4435 2.6309 283.2271 340.4015 339.1505 0.3497 9.7043 357.2566 2.2379 0.0000 0.0000 0.0000 0.0000 0.0000 0.0000 0.0000 0.0000 0.0000 0.0000 0.0000 0.0000 0.0000 0.0000 0.0000 0.0000 0.0000 0.0000 0.0000 0.0000 0.0000 0.0000 0.0000 0.0000 0.0000 0.0000 0.0000 0.0000 0.0000 0.0000 0.0000 0.0000 0.0000 0.0000 0.0000 0.0000 0.0000 0.0000 0.0000 0.0000 0.0000 0.0000 0.0000 0.0000 0.0000 2.3464 7.1134 359.6111 45.3709 7.7688 64.2125 19.1683 347.5069 356.8262 349.7707 356.5589 5.8415 0.0000 0.0000 0.0000 0.0000 0.0000 0.0000 0.0000 0.0000 0.0000 0.0000 0.0000 0.0000 0.0000 0.0000 0.0000 0.0000 0.0000 0.0000 0.0000 0.0000 0.0000 0.0000 0.0000 0.0000 0.0000 0.0000 0.0000 0.0000 0.0000 0.0000 0.0000 0.0000 0.0000 0.0000 0.0000 0.0000 0.0000 0.0000 0.0000 0.0000 0.0000 0.0000 0.0000 0.0000 0.0000 6.5832 3.0975 12.6795 7.3218 17.9841 2.0794 358.5011 355.0094 353.4102 355.4323 0.3642 359.8799 354.8972 3.1428 356.2977 2.4990 16.6827 5.6692 350.4302 351.9090 0.4756 2.7486 0.1765 359.5014 
-0.1777 0.8962 0.2712 356.4597 356.4871 358.6935 359.1824 352.6248 359.1007 0.0337 7.8400 4.7827 358.6712 3.5352 359.6039 358.6157 1.6182 1.0736 352.3150 4.5354 3.4886 316.4412 2.6047 283.2269 340.3884 339.1542 0.3613 9.7081 357.2597 2.2483 0.0000 0.0000 0.0000 0.0000 0.0000 0.0000 0.0000 0.0000 0.0000 0.0000 0.0000 0.0000 0.0000 0.0000 0.0000 0.0000 0.0000 0.0000 0.0000 0.0000 0.0000 0.0000 0.0000 0.0000 0.0000 0.0000 0.0000 0.0000 0.0000 0.0000 0.0000 0.0000 0.0000 0.0000 0.0000 0.0000 0.0000 0.0000 0.0000 0.0000 0.0000 0.0000 0.0000 0.0000 0.0000 2.3456 7.1099 359.6098 45.3443 7.8055 64.1690 19.1772 347.4850 356.8238 349.7813 356.5577 5.8477 0.0000 0.0000 0.0000 0.0000 0.0000 0.0000 0.0000 0.0000 0.0000 0.0000 0.0000 0.0000 0.0000 0.0000 0.0000 0.0000 0.0000 0.0000 0.0000 0.0000 0.0000 0.0000 0.0000 0.0000 0.0000 0.0000 0.0000 0.0000 0.0000 0.0000 0.0000 0.0000 0.0000 0.0000 0.0000 0.0000 0.0000 0.0000 0.0000 0.0000 0.0000 0.0000 0.0000 0.0000 0.0000 6.5807 3.1149 12.7038 7.3285 17.9868 2.0642 358.4490 355.0085 353.4124 355.4300 0.3624 359.8805 354.9214 3.1453 356.2988 2.5196 16.6892 5.6656 350.3971 351.8988 0.4817 2.7493 0.1754 359.5011 
-0.1777 0.8962 0.2711 356.4571 356.4797 358.6901 359.1752 352.6284 359.0912 0.0309 7.8395 4.7796 358.6624 3.5318 359.6045 358.6104 1.6142 1.0848 352.3128 4.5369 3.4846 316.4388 2.5784 283.2266 340.3792 339.1521 0.3735 9.7119 357.2627 2.2587 0.0000 0.0000 0.0000 0.0000 0.0000 0.0000 0.0000 0.0000 0.0000 0.0000 0.0000 0.0000 0.0000 0.0000 0.0000 0.0000 0.0000 0.0000 0.0000 0.0000 0.0000 0.0000 0.0000 0.0000 0.0000 0.0000 0.0000 0.0000 0.0000 0.0000 0.0000 0.0000 0.0000 0.0000 0.0000 0.0000 0.0000 0.0000 0.0000 0.0000 0.0000 0.0000 0.0000 0.0000 0.0000 2.3449 7.1064 359.6084 45.3238 7.8325 64.1327 19.1862 347.4630 356.8214 349.7920 356.5565 5.8539 0.0000 0.0000 0.0000 0.0000 0.0000 0.0000 0.0000 0.0000 0.0000 0.0000 0.0000 0.0000 0.0000 0.0000 0.0000 0.0000 0.0000 0.0000 0.0000 0.0000 0.0000 0.0000 0.0000 0.0000 0.0000 0.0000 0.0000 0.0000 0.0000 0.0000 0.0000 0.0000 0.0000 0.0000 0.0000 0.0000 0.0000 0.0000 0.0000 0.0000 0.0000 0.0000 0.0000 0.0000 0.0000 6.5819 3.1329 12.7179 7.3353 17.9895 2.0490 358.4050 354.9914 353.4229 355.4276 0.3606 359.8810 354.9457 3.1463 356.2899 2.5402 16.6957 5.6620 350.4090 351.9085 0.5231 2.7499 0.1743 359.5008 
-0.1776 0.8962 0.2711 356.4544 356.4722 358.6868 359.1680 352.6320 359.0816 0.0280 7.8389 4.7765 358.6535 3.5285 359.6052 358.6051 1.6101 1.0960 352.3105 4.5383 3.4806 316.4365 2.5521 283.2263 340.3699 339.1500 0.3857 9.7158 357.2657 2.2691 0.0000 0.0000 0.0000 0.0000 0.0000 0.0000 0.0000 0.0000 0.0000 0.0000 0.0000 0.0000 0.0000 0.0000 0.0000 0.0000 0.0000 0.0000 0.0000 0.0000 0.0000 0.0000 0.0000 0.0000 0.0000 0.0000 0.0000 0.0000 0.0000 0.0000 0.0000 0.0000 0.0000 0.0000 0.0000 0.0000 0.0000 0.0000 0.0000 0.0000 0.0000 0.0000 0.0000 0.0000 0.0000 2.3441 7.1028 359.6071 45.3033 7.8595 64.0964 19.1951 347.4410 356.8190 349.8026 356.5554 5.8601 0.0000 0.0000 0.0000 0.0000 0.0000 0.0000 0.0000 0.0000 0.0000 0.0000 0.0000 0.0000 0.0000 0.0000 0.0000 0.0000 0.0000 0.0000 0.0000 0.0000 0.0000 0.0000 0.0000 0.0000 0.0000 0.0000 0.0000 0.0000 0.0000 0.0000 0.0000 0.0000 0.0000 0.0000 0.0000 0.0000 0.0000 0.0000 0.0000 0.0000 0.0000 0.0000 0.0000 0.0000 0.0000 6.5831 3.1509 12.7321 7.3420 17.9922 2.0338 358.3609 354.9743 353.4335 355.4252 0.3588 359.8815 354.9701 3.1473 356.2811 2.5608 16.7022 5.6584 350.4209 351.9182 0.5645 2.7506 0.1733 359.5005 
-0.1778 0.8962 0.2712 356.4353 356.4718 358.6873 359.1604 352.6368 359.0791 0.0260 7.8409 4.7946 358.6449 3.5281 359.6143 358.5942 1.6122 1.1153 352.3048 4.5429 3.4824 316.3978 2.5422 283.2086 340.3640 339.1607 0.3613 9.7062 357.2673 2.2439 0.0000 0.0000 0.0000 0.0000 0.0000 0.0000 0.0000 0.0000 0.0000 0.0000 0.0000 0.0000 0.0000 0.0000 0.0000 0.0000 0.0000 0.0000 0.0000 0.0000 0.0000 0.0000 0.0000 0.0000 0.0000 0.0000 0.0000 0.0000 0.0000 0.0000 0.0000 0.0000 0.0000 0.0000 0.0000 0.0000 0.0000 0.0000 0.0000 0.0000 0.0000 0.0000 0.0000 0.0000 0.0000 2.3575 7.1159 359.6089 45.3295 7.8476 64.1152 19.2003 347.4317 356.8270 349.7871 356.5557 5.8422 0.0000 0.0000 0.0000 0.0000 0.0000 0.0000 0.0000 0.0000 0.0000 0.0000 0.0000 0.0000 0.0000 0.0000 0.0000 0.0000 0.0000 0.0000 0.0000 0.0000 0.0000 0.0000 0.0000 0.0000 0.0000 0.0000 0.0000 0.0000 0.0000 0.0000 0.0000 0.0000 0.0000 0.0000 0.0000 0.0000 0.0000 0.0000 0.0000 0.0000 0.0000 0.0000 0.0000 0.0000 0.0000 6.6015 3.1307 12.7165 7.3561 17.9824 2.0947 358.4664 355.0713 353.3628 355.4209 0.3570 359.8814 354.9290 3.1609 356.3297 2.5625 16.6944 5.6791 350.4022 351.8326 0.4595 2.7525 0.1720 359.4995 
-0.1780 0.8962 0.2713 356.4186 356.4589 358.6821 359.1505 352.6427 359.0736 0.0240 7.8429 4.8128 358.6364 3.5278 359.6235 358.5851 1.6155 1.1309 352.2992 4.5475 3.4841 316.3585 2.5252 283.1909 340.3472 339.1711 0.3516 9.7046 357.2751 2.2403 0.0000 0.0000 0.0000 0.0000 0.0000 0.0000 0.0000 0.0000 0.0000 0.0000 0.0000 0.0000 0.0000 0.0000 0.0000 0.0000 0.0000 0.0000 0.0000 0.0000 0.0000 0.0000 0.0000 0.0000 0.0000 0.0000 0.0000 0.0000 0.0000 0.0000 0.0000 0.0000 0.0000 0.0000 0.0000 0.0000 0.0000 0.0000 0.0000 0.0000 0.0000 0.0000 0.0000 0.0000 0.0000 2.3708 7.1290 359.6108 45.3581 7.8326 64.1382 19.2017 347.4313 356.8363 349.7874 356.5543 5.8335 0.0000 0.0000 0.0000 0.0000 0.0000 0.0000 0.0000 0.0000 0.0000 0.0000 0.0000 0.0000 0.0000 0.0000 0.0000 0.0000 0.0000 0.0000 0.0000 0.0000 0.0000 0.0000 0.0000 0.0000 0.0000 0.0000 0.0000 0.0000 0.0000 0.0000 0.0000 0.0000 0.0000 0.0000 0.0000 0.0000 0.0000 0.0000 0.0000 0.0000 0.0000 0.0000 0.0000 0.0000 0.0000 6.6229 3.1552 12.7360 7.3832 17.9778 2.1261 358.4636 355.1262 353.3181 355.4167 0.3553 359.8813 354.9389 3.1766 356.3598 2.6034 16.6990 5.6930 350.4119 351.7701 0.4537 2.7544 0.1707 359.4986 
-0.1783 0.8962 0.2714 356.4019 356.4460 358.6770 359.1407 352.6486 359.0682 0.0220 7.8449 4.8310 358.6277 3.5275 359.6326 358.5760 1.6189 1.1466 352.2935 4.5522 3.4859 316.3192 2.5081 283.1732 340.3302 339.1815 0.3419 9.7030 357.2829 2.2367 0.0000 0.0000 0.0000 0.0000 0.0000 0.0000 0.0000 0.0000 0.0000 0.0000 0.0000 0.0000 0.0000 0.0000 0.0000 0.0000 0.0000 0.0000 0.0000 0.0000 0.0000 0.0000 0.0000 0.0000 0.0000 0.0000 0.0000 0.0000 0.0000 0.0000 0.0000 0.0000 0.0000 0.0000 0.0000 0.0000 0.0000 0.0000 0.0000 0.0000 0.0000 0.0000 0.0000 0.0000 0.0000 2.3842 7.1421 359.6127 45.3866 7.8176 64.1613 19.2032 347.4310 356.8456 349.7876 356.5529 5.8247 0.0000 0.0000 0.0000 0.0000 0.0000 0.0000 0.0000 0.0000 0.0000 0.0000 0.0000 0.0000 0.0000 0.0000 0.0000 0.0000 0.0000 0.0000 0.0000 0.0000 0.0000 0.0000 0.0000 0.0000 0.0000 0.0000 0.0000 0.0000 0.0000 0.0000 0.0000 0.0000 0.0000 0.0000 0.0000 0.0000 0.0000 0.0000 0.0000 0.0000 0.0000 0.0000 0.0000 0.0000 0.0000 6.6443 3.1796 12.7556 7.4104 17.9732 2.1575 358.4606 355.1810 353.2733 355.4124 0.3536 359.8813 354.9488 3.1923 356.3899 2.6444 16.7036 5.7068 350.4217 351.7077 0.4479 2.7563 0.1694 359.4976 
-0.1779 0.8962 0.2716 356.3682 356.4920 358.6853 359.1309 352.6461 359.0709 0.0177 7.8446 4.8267 358.6169 3.5346 359.6342 358.5547 1.6131 1.1633 352.2953 4.5532 3.4760 316.2945 2.4883 283.1749 340.3096 339.1723 0.3330 9.7091 357.2665 2.2494 0.0000 0.0000 0.0000 0.0000 0.0000 0.0000 0.0000 0.0000 0.0000 0.0000 0.0000 0.0000 0.0000 0.0000 0.0000 0.0000 0.0000 0.0000 0.0000 0.0000 0.0000 0.0000 0.0000 0.0000 0.0000 0.0000 0.0000 0.0000 0.0000 0.0000 0.0000 0.0000 0.0000 0.0000 0.0000 0.0000 0.0000 0.0000 0.0000 0.0000 0.0000 0.0000 0.0000 0.0000 0.0000 2.3413 7.1174 359.6092 45.3916 7.8232 64.1881 19.2022 347.3936 356.8255 349.7802 356.5499 5.7975 0.0000 0.0000 0.0000 0.0000 0.0000 0.0000 0.0000 0.0000 0.0000 0.0000 0.0000 0.0000 0.0000 0.0000 0.0000 0.0000 0.0000 0.0000 0.0000 0.0000 0.0000 0.0000 0.0000 0.0000 0.0000 0.0000 0.0000 0.0000 0.0000 0.0000 0.0000 0.0000 0.0000 0.0000 0.0000 0.0000 0.0000 0.0000 0.0000 0.0000 0.0000 0.0000 0.0000 0.0000 0.0000 6.6153 3.1618 12.7088 7.3359 17.9847 2.0780 358.4812 355.0011 353.3961 355.4085 0.3558 359.8819 354.9459 3.1677 356.3077 2.5585 16.6940 5.6660 350.3883 351.9056 0.4950 2.7523 0.1817 359.4999 
